<svg width="202" height="26" viewBox="0 0 202 26" fill="none" xmlns="http://www.w3.org/2000/svg">
<path d="M192.215 16.6504V25.5383H186.386V16.5638L176.633 0.432861H182.808L189.532 11.6005L196.284 0.432861H201.998L192.215 16.6504Z" fill="black"/>
<path d="M164.426 15.6693L161.05 19.1898V25.5383H155.25V0.432861H161.05V12.1487L172.189 0.432861H178.681L168.235 11.6293L179.287 25.5383H172.477L164.426 15.6693Z" fill="black"/>
<path d="M141.6 25.9711C139.609 25.9711 137.676 25.7114 135.829 25.1632C133.982 24.6149 132.482 23.9223 131.356 23.0566L133.347 18.6704C134.415 19.4495 135.714 20.0844 137.185 20.5749C138.686 21.0655 140.158 21.2963 141.658 21.2963C143.303 21.2963 144.544 21.0655 145.323 20.5749C146.102 20.0844 146.506 19.4206 146.506 18.6127C146.506 18.0067 146.275 17.5161 145.814 17.1121C145.352 16.7081 144.746 16.3907 144.024 16.1598C143.303 15.929 142.293 15.6693 141.052 15.3807C139.119 14.919 137.56 14.4861 136.349 14.0244C135.137 13.5627 134.069 12.8413 133.203 11.8313C132.337 10.8213 131.876 9.4939 131.876 7.8202C131.876 6.3485 132.28 5.04994 133.059 3.86681C133.838 2.68368 135.05 1.73141 136.637 1.03885C138.224 0.346282 140.186 0 142.495 0C144.111 0 145.669 0.201998 147.199 0.577137C148.728 0.952275 150.084 1.50055 151.239 2.22198L149.45 6.63707C147.112 5.30966 144.804 4.67481 142.466 4.67481C140.821 4.67481 139.638 4.93452 138.859 5.45394C138.08 5.97336 137.676 6.66593 137.676 7.53163C137.676 8.39734 138.138 9.03219 139.032 9.46504C139.927 9.89789 141.312 10.3019 143.159 10.7059C145.092 11.1676 146.65 11.6004 147.862 12.0622C149.074 12.5239 150.142 13.2453 151.008 14.2264C151.873 15.2075 152.335 16.535 152.335 18.2087C152.335 19.6515 151.931 20.9501 151.123 22.1332C150.315 23.3163 149.103 24.2686 147.516 24.9612C145.9 25.6537 143.967 26 141.658 26L141.6 25.9711Z" fill="black"/>
<path d="M130.952 0.432861L120.044 25.5383H114.273L103.423 0.432861H109.714L117.39 18.3529L125.152 0.432861H130.952Z" fill="black"/>
<path d="M90.7836 25.9711C88.1576 25.9711 85.8202 25.4229 83.7136 24.2974C81.6071 23.172 79.9622 21.6138 78.7791 19.6515C77.596 17.6892 76.99 15.4673 76.99 12.9856C76.99 10.5327 77.596 8.31076 78.7791 6.31964C79.1543 5.71365 79.5582 5.13651 80.02 4.61709L84.1465 8.45505C84.0599 8.57048 84.0022 8.6859 83.9156 8.83019C83.2231 10.0422 82.8768 11.4273 82.8768 12.9856C82.8768 14.5438 83.2231 15.929 83.9156 17.141C84.6082 18.3529 85.5316 19.3052 86.7436 19.9978C87.9556 20.6903 89.283 21.0078 90.7836 21.0078C92.2841 21.0078 93.6115 20.6615 94.8235 19.9978C95.1986 19.7958 95.5449 19.5649 95.8624 19.3052L99.8446 22.9989C99.2386 23.4895 98.5749 23.9223 97.8535 24.2974C95.7758 25.4229 93.4095 25.9711 90.8124 25.9711H90.7836ZM82.8191 2.19312C83.1076 2.01998 83.3962 1.84684 83.7136 1.6737C85.8202 0.54828 88.1576 0 90.7836 0C93.4095 0 95.7469 0.54828 97.8246 1.6737C99.9023 2.79911 101.547 4.35738 102.759 6.31964C103.971 8.28191 104.548 10.5039 104.548 12.9856C104.548 15.3807 103.971 17.5449 102.846 19.4784L98.2863 15.5538C98.5172 14.7458 98.6326 13.909 98.6326 12.9856C98.6326 11.4273 98.2863 10.0422 97.5938 8.83019C96.9012 7.6182 95.9778 6.66593 94.7658 5.97336C93.5538 5.2808 92.2264 4.96337 90.7258 4.96337C89.3407 4.96337 88.0999 5.25194 86.9745 5.82908L82.7614 2.22198L82.8191 2.19312Z" fill="black"/>
<path d="M74.566 0.432861V25.5383H68.737V15.2364H57.2808V25.5383H51.4517V0.432861H57.2808V10.3308H68.737V0.432861H74.566Z" fill="black"/>
<path d="M38.7258 25.9711C36.7347 25.9711 34.8013 25.7114 32.9545 25.1632C31.1076 24.6149 29.6071 23.9223 28.4817 23.0566L30.4728 18.6704C31.5405 19.4495 32.8391 20.0844 34.3108 20.5749C35.8113 21.0655 37.283 21.2963 38.7836 21.2963C40.4284 21.2963 41.6692 21.0655 42.4484 20.5749C43.2275 20.0844 43.6315 19.4206 43.6315 18.6127C43.6315 18.0067 43.4007 17.5161 42.9389 17.1121C42.4772 16.7081 41.8712 16.3907 41.1498 16.1598C40.4284 15.929 39.4184 15.6693 38.1776 15.3807C36.2442 14.919 34.6859 14.4861 33.4739 14.0244C32.2619 13.5627 31.1942 12.8413 30.3285 11.8313C29.4628 10.8213 29.0011 9.4939 29.0011 7.8202C29.0011 6.3485 29.4051 5.04994 30.1842 3.86681C30.9634 2.68368 32.1753 1.73141 33.7625 1.03885C35.3496 0.346282 37.3119 0 39.6204 0C41.2364 0 42.7947 0.201998 44.3241 0.577137C45.8535 0.952275 47.2098 1.50055 48.364 2.22198L46.5749 6.63707C44.2375 5.30966 41.929 4.67481 39.5916 4.67481C37.9467 4.67481 36.7636 4.93452 35.9844 5.45394C35.2053 5.97336 34.8013 6.66593 34.8013 7.53163C34.8013 8.39734 35.263 9.03219 36.1576 9.46504C37.0521 9.89789 38.4373 10.3019 40.2841 10.7059C42.2175 11.1676 43.7758 11.6004 44.9878 12.0622C46.1998 12.5239 47.2675 13.2453 48.1332 14.2264C48.9989 15.2075 49.4606 16.535 49.4606 18.2087C49.4606 19.6515 49.0566 20.9501 48.2486 22.1332C47.4406 23.3163 46.2286 24.2686 44.6415 24.9612C43.0255 25.6537 41.0921 26 38.7836 26L38.7258 25.9711Z" fill="black"/>
<path d="M20.2286 0.432861H26.0577V25.5383H20.2286V0.432861Z" fill="black"/>
<path d="M0 0.432861H5.82908V20.8058H18.4684V25.5383H0V0.432861Z" fill="black"/>
</svg>
