<svg width="216" height="400" viewBox="0 0 216 400" fill="none" xmlns="http://www.w3.org/2000/svg">
<path d="M200 400C198.03 400.001 196.079 399.614 194.258 398.86C192.438 398.107 190.784 397.003 189.39 395.61L4.50002 210.71C1.68795 207.897 0.108215 204.082 0.108215 200.105C0.108215 196.127 1.68795 192.313 4.50002 189.5L189.39 4.59988C190.783 3.20656 192.436 2.10118 194.256 1.34687C196.076 0.592557 198.026 0.204078 199.996 0.203614C201.966 0.203149 203.917 0.590711 205.737 1.34417C207.558 2.09762 209.212 3.20222 210.605 4.59489C211.998 5.98756 213.104 7.64102 213.858 9.46088C214.612 11.2807 215.001 13.2314 215.001 15.2013C215.002 17.1713 214.614 19.1221 213.861 20.9424C213.107 22.7626 212.003 24.4166 210.61 25.8099L36.32 200.1L210.61 374.39C212.709 376.488 214.139 379.161 214.718 382.072C215.298 384.982 215.001 387.999 213.865 390.741C212.729 393.483 210.805 395.826 208.337 397.474C205.869 399.122 202.968 400.001 200 400V400Z" fill="white"/>
</svg>
