<svg width="33" height="33" viewBox="0 0 33 33" fill="none" xmlns="http://www.w3.org/2000/svg">
<circle cx="16.5" cy="16.5" r="16.5" fill="white"/>
<path d="M16.0126 28C13.7257 28 11.6901 27.5144 9.8555 26.5178C8.02094 25.5211 6.58848 24.1411 5.55812 22.4033C4.52775 20.6656 4 18.6978 4 16.5C4 14.3278 4.52775 12.36 5.55812 10.5967C5.88482 10.06 6.23665 9.54889 6.63874 9.08889L10.2325 12.4878C10.1571 12.59 10.1068 12.6922 10.0314 12.82C9.42827 13.8933 9.1267 15.12 9.1267 16.5C9.1267 17.88 9.42827 19.1067 10.0314 20.18C10.6346 21.2533 11.4387 22.0967 12.4942 22.71C13.5497 23.3233 14.7058 23.6044 16.0126 23.6044C17.3194 23.6044 18.4754 23.2978 19.5309 22.71C19.8576 22.5311 20.1592 22.3267 20.4356 22.0967L23.9037 25.3678C23.3759 25.8022 22.7979 26.1856 22.1696 26.5178C20.3602 27.5144 18.2995 28 16.0377 28H16.0126ZM9.07644 6.94222C9.32775 6.78889 9.57906 6.63556 9.8555 6.48222C11.6901 5.48556 13.7257 5 16.0126 5C18.2995 5 20.3351 5.48556 22.1445 6.48222C23.9539 7.47889 25.3864 8.85889 26.4419 10.5967C27.4974 12.3344 28 14.3022 28 16.5C28 18.6211 27.4974 20.5378 26.5173 22.25L22.5466 18.7744C22.7476 18.0589 22.8482 17.3178 22.8482 16.5C22.8482 15.12 22.5466 13.8933 21.9435 12.82C21.3403 11.7467 20.5361 10.9033 19.4806 10.29C18.4251 9.67667 17.2691 9.39556 15.9623 9.39556C14.756 9.39556 13.6754 9.65111 12.6953 10.1622L9.02618 6.96778L9.07644 6.94222Z" fill="black"/>
</svg>
