<svg width="21" height="20" viewBox="0 0 21 20" fill="none" xmlns="http://www.w3.org/2000/svg">
<path d="M0.265342 6.50512H4.7497V20H0.265342V6.50512ZM2.53754 0C1.00273 0 0 1.00761 0 2.33014C0 3.62546 0.973386 4.66237 2.47885 4.66237H2.50745C4.0716 4.66237 5.04569 3.62541 5.04569 2.33014C5.01634 1.00761 4.07165 0 2.53754 0ZM15.7601 6.18811C13.3797 6.18811 12.3133 7.49739 11.7184 8.41557V6.50512H7.23269C7.29208 7.7711 7.23269 20 7.23269 20H11.7184V12.4635C11.7184 12.0599 11.7477 11.6577 11.8658 11.3686C12.1905 10.5628 12.9286 9.72833 14.1666 9.72833C15.7908 9.72833 16.4395 10.9664 16.4395 12.7797V20H20.9245V12.2617C20.9245 8.11675 18.7123 6.18811 15.7601 6.18811Z" fill="black"/>
</svg>
